<svg enable-background="new 0 0 128 128" height="128" viewBox="0 0 128 128" width="128" xmlns="http://www.w3.org/2000/svg"><g fill="#282d33"><path d="m62 0h4v7.66h-4z"/><path d="m47.395 3.512h7.66v4h-7.66z" transform="matrix(.2589 .9659 -.9659 .2589 43.2885 -45.3945)"/><path d="m35.493 8.442h7.658v4h-7.658z" transform="matrix(.4999 .8661 -.8661 .4999 28.7075 -28.8346)"/><path d="m25.27 16.285h7.661v4h-7.661z" transform="matrix(.707 .7072 -.7072 .707 21.4588 -15.2227)"/><path d="m17.426 26.507h7.659v4h-7.659z" transform="matrix(.866 .5 -.5 .866 17.0999 -6.8083)"/><path d="m12.495 38.41h7.66v4.001h-7.66z" transform="matrix(.9659 .2587 -.2587 .9659 11.0118 -2.8477)"/><path d="m10.813 51.185h7.659v4h-7.659z"/><path d="m109.527 51.189h7.66v4h-7.66z"/><path d="m109.674 36.586h4.001v7.656h-4.001z" transform="matrix(.2588 .9659 -.9659 .2588 121.8153 -77.9145)"/><path d="m104.746 24.681h4v7.659h-4z" transform="matrix(.5 .866 -.866 .5 78.0603 -78.189)"/><path d="m96.9 14.459h4.001v7.659h-4.001z" transform="matrix(.7074 .7069 -.7069 .7074 41.8706 -64.5569)"/><path d="m86.68 6.614h4v7.658h-4z" transform="matrix(.8662 .4997 -.4997 .8662 17.0863 -42.9189)"/><path d="m74.776 1.685h3.999v7.658h-3.999z" transform="matrix(.966 .2586 -.2586 .966 4.0371 -19.6658)"/><path d="m83.13 108.244h-39.007l-1.996-1.866c-.221-3.283-.915-7.772-2.968-10.509-15.279-19.662-15.707-38.452-15.707-38.636h4c0 .17.405 17.574 14.887 36.208 2.25 3 3.213 7.25 3.613 10.803h35.36c.419-3.551 1.401-7.8 3.643-10.778 14.507-18.682 14.912-36.063 14.912-36.233h4c0 .184-.428 18.951-15.734 38.663-2.046 2.718-2.767 7.21-3.007 10.495z"/><path d="m38.817 104.695h49.685v4h-49.685z"/><path d="m38.817 114.348h49.685v4h-49.685z"/><path d="m46.436 124h34.447v4h-34.447z"/><path d="m42.582 107.209h4v9.164h-4z"/><path d="m53.562 39.61h-4c0-2.607-2.122-4.729-4.729-4.729h-6.549v-4h6.549c4.813 0 8.729 3.916 8.729 8.729z"/><path d="m61.703 105.549h-4v-72.917c0-4.463-3.631-8.095-8.093-8.095-4.464 0-8.096 3.631-8.096 8.095h-4c0-6.669 5.426-12.095 12.096-12.095 6.668 0 12.093 5.426 12.093 12.095z"/><path d="m38.284 48.365c-4.814 0-8.73-3.916-8.73-8.728 0-4.814 3.916-8.731 8.73-8.731h1.409v4h-1.409c-2.608 0-4.73 2.122-4.73 4.731 0 2.607 2.122 4.728 4.73 4.728z"/><path d="m27.369 53.822h-4c0-5.315 4.323-9.639 9.638-9.639h3.276v4h-3.276c-3.109 0-5.638 2.529-5.638 5.639z"/><path d="m49.453 48.032h-2.843c-2.908 0-5.274-2.367-5.274-5.276v-3.021h4v3.021c0 .704.571 1.276 1.274 1.276h2.843z"/><path d="m77.757 39.608h-4c0-4.812 3.916-8.727 8.729-8.727h6.548v4h-6.548c-2.607 0-4.729 2.12-4.729 4.727z"/><path d="m69.613 105.547h-4v-72.915c0-6.669 5.426-12.095 12.095-12.095 6.67 0 12.097 5.426 12.097 12.095h-4c0-4.463-3.632-8.095-8.097-8.095-4.464 0-8.095 3.631-8.095 8.095z"/><path d="m89.034 48.365v-4c2.609 0 4.731-2.122 4.731-4.729s-2.122-4.729-4.731-4.729h-1.409v-4h1.409c4.814 0 8.731 3.916 8.731 8.729.001 4.813-3.916 8.729-8.731 8.729z"/><path d="m103.95 53.82h-4c0-3.108-2.53-5.637-5.64-5.637h-3.274v-4h3.274c5.316 0 9.64 4.323 9.64 9.637z"/><path d="m80.709 48.032h-2.843v-4h2.843c.702 0 1.273-.573 1.273-1.276v-3.021h4v3.021c0 2.909-2.365 5.276-5.273 5.276z"/><path d="m24.815 57.735h33.924v4h-33.924z"/><path d="m70.047 57.735h33.139v4h-33.139z"/></g></svg>