<svg width="24" height="24" viewBox="0 0 24 24" fill="none" xmlns="http://www.w3.org/2000/svg">
<path d="M11.25 5.24994C10.41 5.24994 9.6255 5.47944 8.955 5.87994C8.88272 5.11073 8.63651 4.36801 8.235 3.70794C9.20746 3.22226 10.2828 2.97862 11.3697 2.99775C12.4565 3.01687 13.5226 3.29818 14.4774 3.81776C15.4322 4.33735 16.2474 5.07983 16.8536 5.98207C17.4599 6.88431 17.8392 7.91961 17.9595 8.99994H19.8765C21.3255 8.99994 22.5015 10.1759 22.5015 11.6249V18.3749C22.5015 18.7198 22.4336 19.0613 22.3015 19.3798C22.1695 19.6984 21.976 19.9879 21.7321 20.2316C21.4882 20.4754 21.1987 20.6687 20.88 20.8006C20.5614 20.9324 20.2198 21.0001 19.875 20.9999H13.125C12.4288 20.9999 11.7611 20.7234 11.2688 20.2311C10.7766 19.7388 10.5 19.0711 10.5 18.3749V16.4594C9.98 16.4017 9.46852 16.2834 8.976 16.1069C8.991 15.7529 9 15.3839 9 14.9999V14.8799C9 14.5199 9 14.0954 8.985 13.6394C9.45247 13.9132 9.96581 14.0998 10.5 14.1899V11.6249C10.5 10.1759 11.676 8.99994 13.125 8.99994H15.6885C15.5112 7.95113 14.9681 6.99902 14.1556 6.31254C13.3431 5.62606 12.3137 5.2496 11.25 5.24994ZM17.8335 11.2499C17.55 12.4896 16.9227 13.6242 16.0235 14.5234C15.1243 15.4226 13.9897 16.05 12.75 16.3334V18.3749C12.75 18.5819 12.918 18.7499 13.125 18.7499H19.875C19.9745 18.7499 20.0698 18.7104 20.1402 18.6401C20.2105 18.5698 20.25 18.4744 20.25 18.3749V11.6249C20.25 11.5255 20.2105 11.4301 20.1402 11.3598C20.0698 11.2894 19.9745 11.2499 19.875 11.2499H17.8335ZM15.4935 11.2499H13.125C13.0255 11.2499 12.9302 11.2894 12.8598 11.3598C12.7895 11.4301 12.75 11.5255 12.75 11.6249V13.9949C13.383 13.7705 13.9579 13.4076 14.4328 12.9327C14.9077 12.4579 15.2691 11.8829 15.4935 11.2499ZM5.3715 1.68744C5.49601 1.79634 5.58102 1.94335 5.6133 2.10558C5.64558 2.26781 5.62333 2.43617 5.55 2.58444C5.5373 2.62832 5.53074 2.67376 5.5305 2.71944C5.5305 2.81394 5.5545 2.99394 5.781 3.21894C5.8905 3.32844 5.9745 3.40644 6.066 3.49194C6.141 3.56094 6.2205 3.63294 6.321 3.73194C6.516 3.91794 6.7215 4.13694 6.906 4.41144C7.2885 4.98594 7.5 5.70444 7.5 6.74994C7.5 7.99794 7.05 9.06444 6.342 9.73794C6.78 10.1819 7.035 10.7624 7.1925 11.3429C7.5 12.4709 7.5 13.8659 7.5 14.9444V14.9999C7.5 18.0869 6.9225 19.9199 6.2685 21.0104C6.02143 21.4398 5.69696 21.8197 5.3115 22.1309C5.15884 22.25 4.9927 22.3507 4.8165 22.4309C4.8165 22.4309 4.626 22.4999 4.5 22.4999C4.39187 22.4913 4.2854 22.4681 4.1835 22.4309C4.0073 22.3507 3.84116 22.25 3.6885 22.1309C3.30304 21.8197 2.97857 21.4398 2.7315 21.0104C2.0775 19.9214 1.5 18.0869 1.5 14.9999V14.9459C1.5 13.8659 1.5 12.4724 1.8075 11.3414C1.965 10.7624 2.22 10.1819 2.658 9.73644C1.95 9.06594 1.5 7.99794 1.5 6.74994C1.5 6.26094 1.6305 5.67744 1.8105 5.13894C1.9905 4.59894 2.2425 4.04094 2.5335 3.59094C2.88 3.00594 3.3675 2.51544 3.7455 2.18544C3.95274 2.00318 4.16901 1.83147 4.3935 1.67094L4.4385 1.64094L4.452 1.63044L4.4565 1.62744L4.4595 1.62594C4.59704 1.53425 4.76102 1.49058 4.92595 1.5017C5.09088 1.51282 5.24751 1.57812 5.3715 1.68744Z" fill="#4B208C"/>
</svg>
