<svg width="245" height="204" viewBox="0 0 245 204" fill="none" xmlns="http://www.w3.org/2000/svg">
<path d="M195.1 80.8438C193.799 80.8438 188.191 80.8748 186.166 80.9642L158.523 81.555L94.7748 18.6562H64.7192L100.412 82.6355L53.8473 83.1952L32.6587 62.1875H7.72322L17.5854 98.7926C17.6572 99.0025 17.7433 99.2085 17.839 99.4106C17.8461 99.4296 17.8461 99.4499 17.839 99.4689C17.7409 99.6697 17.6563 99.8747 17.5854 100.083L7.58923 136.812H32.3668L54.1153 115.436L100.421 116.279L64.7144 180.344H94.8609L158.503 117.476L186.147 118.075C188.2 118.164 193.804 118.195 195.076 118.195C206.728 118.195 216.26 116.897 223.409 114.332C235.535 109.994 237.344 103.177 237.344 99.5C237.344 87.8165 221.553 80.8438 195.1 80.8438Z" fill="#363A79"/>
<path d="M94.475 203.05C90.875 203.05 87.5084 202.383 84.375 201.05C81.3084 199.717 78.8417 197.75 76.975 195.15C75.1084 192.483 74.175 189.217 74.175 185.35C74.175 181.283 75.1417 177.417 77.075 173.75C79.0084 170.083 81.575 166.75 84.775 163.75C88.0417 160.683 91.6417 158.05 95.575 155.85C99.575 153.583 103.642 151.85 107.775 150.65C111.908 149.45 115.808 148.85 119.475 148.85C121.142 148.85 122.842 149.117 124.575 149.65C126.375 150.183 127.875 151.05 129.075 152.25C130.342 153.45 130.975 155.05 130.975 157.05C130.975 159.317 130.108 161.45 128.375 163.45C126.708 165.45 124.975 167.083 123.175 168.35C122.975 168.483 122.708 168.65 122.375 168.85C122.108 169.05 121.842 169.15 121.575 169.15C121.242 169.15 121.075 168.95 121.075 168.55C121.075 168.017 121.442 167.283 122.175 166.35C122.908 165.417 123.642 164.283 124.375 162.95C125.108 161.55 125.475 159.95 125.475 158.15C125.475 155.483 124.542 153.65 122.675 152.65C120.808 151.65 118.708 151.15 116.375 151.15C111.975 151.15 107.642 152.017 103.375 153.75C99.175 155.417 95.3084 157.717 91.775 160.65C88.3084 163.583 85.4417 166.95 83.175 170.75C82.1084 172.617 81.175 174.617 80.375 176.75C79.6417 178.883 79.275 181.05 79.275 183.25C79.275 186.85 80.2417 189.683 82.175 191.75C84.1084 193.75 86.5417 195.183 89.475 196.05C92.4084 196.85 95.4084 197.25 98.475 197.25C103.675 197.25 108.408 196.617 112.675 195.35C117.008 194.017 121.142 191.583 125.075 188.05C125.208 187.917 125.342 187.85 125.475 187.85C125.675 187.85 125.775 188.05 125.775 188.45C125.775 188.717 125.708 188.883 125.575 188.95C123.442 191.817 120.575 194.317 116.975 196.45C113.442 198.517 109.675 200.117 105.675 201.25C101.742 202.45 98.0084 203.05 94.475 203.05ZM136.185 199.85C134.719 199.85 133.585 199.383 132.785 198.45C132.052 197.45 131.685 196.25 131.685 194.85C131.685 193.783 132.252 192.017 133.385 189.55C134.519 187.083 135.952 184.317 137.685 181.25C139.419 178.183 141.219 175.083 143.085 171.95C145.019 168.817 146.752 166.017 148.285 163.55C149.885 161.083 151.085 159.25 151.885 158.05C152.552 157.05 153.219 156.083 153.885 155.15C154.552 154.15 155.552 153.65 156.885 153.65C157.285 153.65 157.985 153.783 158.985 154.05C160.052 154.317 161.052 154.65 161.985 155.05C162.985 155.383 163.519 155.75 163.585 156.15C162.319 156.617 160.752 157.917 158.885 160.05C157.085 162.117 155.119 164.65 152.985 167.65C150.919 170.583 148.885 173.65 146.885 176.85C144.952 179.983 143.219 182.883 141.685 185.55C140.152 188.15 139.052 190.15 138.385 191.55C138.119 192.15 137.819 192.817 137.485 193.55C137.219 194.283 137.085 195.017 137.085 195.75C137.085 196.817 137.652 197.35 138.785 197.35C139.785 197.35 140.952 196.85 142.285 195.85C143.619 194.85 144.985 193.617 146.385 192.15C147.785 190.683 149.119 189.217 150.385 187.75C151.652 186.217 152.719 184.95 153.585 183.95C154.452 182.95 154.952 182.45 155.085 182.45C155.352 182.45 155.485 182.583 155.485 182.85C155.485 182.917 155.185 183.317 154.585 184.05C154.052 184.717 153.452 185.383 152.785 186.05C152.185 186.717 151.819 187.15 151.685 187.35C150.819 188.35 149.785 189.55 148.585 190.95C147.385 192.35 146.085 193.75 144.685 195.15C143.352 196.483 141.952 197.617 140.485 198.55C139.019 199.417 137.585 199.85 136.185 199.85ZM153.554 199.85C152.287 199.85 151.254 199.383 150.454 198.45C149.654 197.517 149.254 196.417 149.254 195.15C149.254 193.083 149.687 190.95 150.554 188.75C151.487 186.483 152.554 184.317 153.754 182.25C155.021 180.183 156.087 178.35 156.954 176.75C157.887 175.15 158.354 174.017 158.354 173.35C158.354 173.017 158.254 172.817 158.054 172.75C159.254 172.217 160.387 171.95 161.454 171.95C162.121 171.95 162.954 172.117 163.954 172.45C164.954 172.717 165.454 173.283 165.454 174.15C165.454 174.417 165.387 174.683 165.254 174.95C165.121 175.15 164.987 175.35 164.854 175.55C162.854 178.35 160.954 181.15 159.154 183.95C157.354 186.75 155.787 189.75 154.454 192.95C154.321 193.35 154.154 193.783 153.954 194.25C153.821 194.717 153.754 195.183 153.754 195.65C153.754 196.783 154.321 197.35 155.454 197.35C156.454 197.35 157.621 196.65 158.954 195.25C160.287 193.783 161.654 191.983 163.054 189.85C164.454 187.65 165.821 185.383 167.154 183.05C168.554 180.65 169.787 178.517 170.854 176.65C171.987 174.717 172.854 173.317 173.454 172.45C173.521 172.317 173.721 172.25 174.054 172.25C174.321 172.25 174.921 172.35 175.854 172.55C176.854 172.75 177.787 172.983 178.654 173.25C179.521 173.517 179.954 173.783 179.954 174.05C179.954 174.117 179.921 174.15 179.854 174.15C179.387 174.817 178.887 175.483 178.354 176.15C177.821 176.817 177.287 177.483 176.754 178.15C175.087 180.417 173.454 182.783 171.854 185.25C170.321 187.717 168.987 190.283 167.854 192.95C167.721 193.35 167.587 193.783 167.454 194.25C167.321 194.65 167.254 195.083 167.254 195.55C167.254 196.75 167.854 197.35 169.054 197.35C170.054 197.35 171.221 196.85 172.554 195.85C173.887 194.85 175.254 193.617 176.654 192.15C178.054 190.683 179.387 189.217 180.654 187.75C181.921 186.217 182.987 184.95 183.854 183.95C184.721 182.95 185.221 182.45 185.354 182.45C185.621 182.45 185.754 182.583 185.754 182.85C185.754 182.917 185.454 183.317 184.854 184.05C184.321 184.717 183.721 185.383 183.054 186.05C182.454 186.717 182.087 187.15 181.954 187.35C180.754 188.75 179.287 190.417 177.554 192.35C175.821 194.283 173.954 196.017 171.954 197.55C170.021 199.017 168.054 199.75 166.054 199.75C163.321 199.75 161.954 198.35 161.954 195.55C161.954 194.417 162.154 193.35 162.554 192.35C161.954 193.283 161.187 194.35 160.254 195.55C159.321 196.683 158.287 197.683 157.154 198.55C156.021 199.417 154.821 199.85 153.554 199.85ZM184.923 199.95C184.389 199.95 183.589 199.817 182.523 199.55C181.523 199.283 180.623 198.883 179.823 198.35C179.023 197.817 178.623 197.217 178.623 196.55C178.623 195.483 179.089 193.85 180.023 191.65C181.023 189.383 182.289 186.817 183.823 183.95C185.356 181.017 187.056 178.017 188.923 174.95C190.789 171.817 192.623 168.817 194.423 165.95C196.289 163.083 197.989 160.583 199.523 158.45C201.056 156.317 202.223 154.783 203.023 153.85C203.089 153.717 203.189 153.683 203.323 153.75C203.456 153.75 203.556 153.75 203.623 153.75C203.889 153.75 204.489 153.85 205.423 154.05C206.356 154.183 207.256 154.417 208.123 154.75C208.989 155.017 209.423 155.317 209.423 155.65C209.423 155.783 209.356 155.883 209.223 155.95C209.156 156.017 209.056 156.117 208.923 156.25C207.989 157.317 207.089 158.45 206.223 159.65C205.356 160.85 204.456 162.05 203.523 163.25C198.323 170.317 193.523 177.617 189.123 185.15C190.656 183.017 192.256 180.983 193.923 179.05C195.656 177.05 197.523 175.217 199.523 173.55C200.123 173.017 200.989 172.317 202.123 171.45C203.323 170.583 204.289 170.15 205.023 170.15C205.689 170.15 206.456 170.417 207.323 170.95C208.189 171.417 208.956 172.017 209.623 172.75C210.356 173.483 210.723 174.183 210.723 174.85C210.723 175.383 210.623 175.917 210.423 176.45C210.289 176.917 210.089 177.417 209.823 177.95C208.356 181.15 206.356 184.183 203.823 187.05C201.289 189.85 198.456 192.35 195.323 194.55C192.256 196.683 189.056 198.417 185.723 199.75C185.589 199.817 185.456 199.85 185.323 199.85C185.189 199.917 185.056 199.95 184.923 199.95ZM184.823 196.15C184.956 196.15 185.123 196.117 185.323 196.05C185.523 195.983 185.689 195.917 185.823 195.85C190.089 193.583 193.923 190.65 197.323 187.05C200.789 183.45 203.556 179.517 205.623 175.25C205.756 174.983 205.856 174.717 205.923 174.45C206.056 174.117 206.123 173.817 206.123 173.55C206.123 173.083 205.889 172.85 205.423 172.85C204.289 172.85 202.823 173.45 201.023 174.65C199.289 175.85 197.456 177.383 195.523 179.25C193.589 181.117 191.756 183.117 190.023 185.25C188.289 187.317 186.889 189.283 185.823 191.15C184.756 192.95 184.223 194.383 184.223 195.45C184.223 195.917 184.423 196.15 184.823 196.15Z" fill="#CCA12D"/>
<path d="M100.52 90.15V92.94H91.67V99.09H98.57V101.88H91.67V111H88.25V90.15H100.52ZM107.709 88.8V111H104.289V88.8H107.709ZM127.68 94.47L117.54 118.77H114L117.36 110.73L110.85 94.47H114.66L119.31 107.07L124.14 94.47H127.68ZM146.011 102.33C146.011 102.95 145.971 103.51 145.891 104.01H133.261C133.361 105.33 133.851 106.39 134.731 107.19C135.611 107.99 136.691 108.39 137.971 108.39C139.811 108.39 141.111 107.62 141.871 106.08H145.561C145.061 107.6 144.151 108.85 142.831 109.83C141.531 110.79 139.911 111.27 137.971 111.27C136.391 111.27 134.971 110.92 133.711 110.22C132.471 109.5 131.491 108.5 130.771 107.22C130.071 105.92 129.721 104.42 129.721 102.72C129.721 101.02 130.061 99.53 130.741 98.25C131.441 96.95 132.411 95.95 133.651 95.25C134.911 94.55 136.351 94.2 137.971 94.2C139.531 94.2 140.921 94.54 142.141 95.22C143.361 95.9 144.311 96.86 144.991 98.1C145.671 99.32 146.011 100.73 146.011 102.33ZM142.441 101.25C142.421 99.99 141.971 98.98 141.091 98.22C140.211 97.46 139.121 97.08 137.821 97.08C136.641 97.08 135.631 97.46 134.791 98.22C133.951 98.96 133.451 99.97 133.291 101.25H142.441ZM153.396 96.87C153.896 96.03 154.556 95.38 155.376 94.92C156.216 94.44 157.206 94.2 158.346 94.2V97.74H157.476C156.136 97.74 155.116 98.08 154.416 98.76C153.736 99.44 153.396 100.62 153.396 102.3V111H149.976V94.47H153.396V96.87Z" fill="#CCA12D"/>
</svg>
