<svg width="880" height="780" viewBox="0 0 880 780" fill="none" xmlns="http://www.w3.org/2000/svg">
<rect width="880" height="780" fill="#9747FF"/>
<path d="M206.484 444.026V453.066H183.204V467.386H201.044V476.266H183.204V499.866H172.004V444.026H206.484ZM234.106 500.586C229.84 500.586 226 499.652 222.586 497.786C219.173 495.866 216.48 493.172 214.506 489.706C212.586 486.239 211.626 482.239 211.626 477.706C211.626 473.172 212.613 469.172 214.586 465.706C216.613 462.239 219.36 459.572 222.826 457.706C226.293 455.786 230.16 454.826 234.426 454.826C238.693 454.826 242.56 455.786 246.026 457.706C249.493 459.572 252.213 462.239 254.186 465.706C256.213 469.172 257.226 473.172 257.226 477.706C257.226 482.239 256.186 486.239 254.106 489.706C252.08 493.172 249.306 495.866 245.786 497.786C242.32 499.652 238.426 500.586 234.106 500.586ZM234.106 490.826C236.133 490.826 238.026 490.346 239.786 489.386C241.6 488.372 243.04 486.879 244.106 484.906C245.173 482.932 245.706 480.532 245.706 477.706C245.706 473.492 244.586 470.266 242.346 468.026C240.16 465.732 237.466 464.586 234.266 464.586C231.066 464.586 228.373 465.732 226.186 468.026C224.053 470.266 222.986 473.492 222.986 477.706C222.986 481.919 224.026 485.172 226.106 487.466C228.24 489.706 230.906 490.826 234.106 490.826ZM285.122 500.586C280.855 500.586 277.015 499.652 273.602 497.786C270.189 495.866 267.495 493.172 265.522 489.706C263.602 486.239 262.642 482.239 262.642 477.706C262.642 473.172 263.629 469.172 265.602 465.706C267.629 462.239 270.375 459.572 273.842 457.706C277.309 455.786 281.175 454.826 285.442 454.826C289.709 454.826 293.575 455.786 297.042 457.706C300.509 459.572 303.229 462.239 305.202 465.706C307.229 469.172 308.242 473.172 308.242 477.706C308.242 482.239 307.202 486.239 305.122 489.706C303.095 493.172 300.322 495.866 296.802 497.786C293.335 499.652 289.442 500.586 285.122 500.586ZM285.122 490.826C287.149 490.826 289.042 490.346 290.802 489.386C292.615 488.372 294.055 486.879 295.122 484.906C296.189 482.932 296.722 480.532 296.722 477.706C296.722 473.492 295.602 470.266 293.362 468.026C291.175 465.732 288.482 464.586 285.282 464.586C282.082 464.586 279.389 465.732 277.202 468.026C275.069 470.266 274.002 473.492 274.002 477.706C274.002 481.919 275.042 485.172 277.122 487.466C279.255 489.706 281.922 490.826 285.122 490.826ZM313.577 477.546C313.577 473.066 314.457 469.092 316.217 465.626C318.031 462.159 320.484 459.492 323.578 457.626C326.671 455.759 330.111 454.826 333.898 454.826C336.778 454.826 339.524 455.466 342.138 456.746C344.751 457.972 346.831 459.626 348.378 461.706V440.666H359.738V499.866H348.378V493.306C346.991 495.492 345.044 497.252 342.538 498.586C340.031 499.919 337.124 500.586 333.818 500.586C330.084 500.586 326.671 499.626 323.578 497.706C320.484 495.786 318.031 493.092 316.217 489.626C314.457 486.106 313.577 482.079 313.577 477.546ZM348.458 477.706C348.458 474.986 347.924 472.666 346.858 470.746C345.791 468.772 344.351 467.279 342.538 466.266C340.724 465.199 338.778 464.666 336.698 464.666C334.618 464.666 332.698 465.172 330.938 466.186C329.178 467.199 327.738 468.692 326.618 470.666C325.551 472.586 325.018 474.879 325.018 477.546C325.018 480.212 325.551 482.559 326.618 484.586C327.738 486.559 329.178 488.079 330.938 489.146C332.751 490.212 334.671 490.746 336.698 490.746C338.778 490.746 340.724 490.239 342.538 489.226C344.351 488.159 345.791 486.666 346.858 484.746C347.924 482.772 348.458 480.426 348.458 477.706ZM409.259 444.026C415.125 444.026 420.272 445.172 424.699 447.466C429.179 449.759 432.619 453.039 435.019 457.306C437.472 461.519 438.699 466.426 438.699 472.026C438.699 477.626 437.472 482.532 435.019 486.746C432.619 490.906 429.179 494.132 424.699 496.426C420.272 498.719 415.125 499.866 409.259 499.866H389.739V444.026H409.259ZM408.859 490.346C414.725 490.346 419.259 488.746 422.459 485.546C425.659 482.346 427.259 477.839 427.259 472.026C427.259 466.212 425.659 461.679 422.459 458.426C419.259 455.119 414.725 453.466 408.859 453.466H400.939V490.346H408.859ZM488.283 476.746C488.283 478.346 488.176 479.786 487.963 481.066H455.563C455.829 484.266 456.949 486.772 458.923 488.586C460.896 490.399 463.323 491.306 466.203 491.306C470.363 491.306 473.323 489.519 475.083 485.946H487.163C485.883 490.212 483.429 493.732 479.803 496.506C476.176 499.226 471.723 500.586 466.443 500.586C462.176 500.586 458.336 499.652 454.923 497.786C451.563 495.866 448.923 493.172 447.003 489.706C445.136 486.239 444.202 482.239 444.202 477.706C444.202 473.119 445.136 469.092 447.003 465.626C448.869 462.159 451.483 459.492 454.843 457.626C458.203 455.759 462.069 454.826 466.443 454.826C470.656 454.826 474.416 455.732 477.723 457.546C481.083 459.359 483.669 461.946 485.483 465.306C487.349 468.612 488.283 472.426 488.283 476.746ZM476.683 473.546C476.629 470.666 475.589 468.372 473.563 466.666C471.536 464.906 469.056 464.026 466.123 464.026C463.349 464.026 461.003 464.879 459.083 466.586C457.216 468.239 456.069 470.559 455.643 473.546H476.683ZM507.658 440.666V499.866H496.458V440.666H507.658ZM524.403 450.266C522.43 450.266 520.776 449.652 519.443 448.426C518.163 447.146 517.523 445.572 517.523 443.706C517.523 441.839 518.163 440.292 519.443 439.066C520.776 437.786 522.43 437.146 524.403 437.146C526.376 437.146 528.003 437.786 529.283 439.066C530.616 440.292 531.283 441.839 531.283 443.706C531.283 445.572 530.616 447.146 529.283 448.426C528.003 449.652 526.376 450.266 524.403 450.266ZM529.923 455.546V499.866H518.723V455.546H529.923ZM559.469 489.546L570.669 455.546H582.589L566.189 499.866H552.589L536.269 455.546H548.269L559.469 489.546ZM630.079 476.746C630.079 478.346 629.973 479.786 629.759 481.066H597.359C597.626 484.266 598.746 486.772 600.719 488.586C602.693 490.399 605.119 491.306 607.999 491.306C612.159 491.306 615.119 489.519 616.879 485.946H628.959C627.679 490.212 625.226 493.732 621.599 496.506C617.973 499.226 613.519 500.586 608.239 500.586C603.973 500.586 600.133 499.652 596.719 497.786C593.359 495.866 590.719 493.172 588.799 489.706C586.933 486.239 585.999 482.239 585.999 477.706C585.999 473.119 586.933 469.092 588.799 465.626C590.666 462.159 593.279 459.492 596.639 457.626C599.999 455.759 603.866 454.826 608.239 454.826C612.453 454.826 616.213 455.732 619.519 457.546C622.879 459.359 625.466 461.946 627.279 465.306C629.146 468.612 630.079 472.426 630.079 476.746ZM618.479 473.546C618.426 470.666 617.386 468.372 615.359 466.666C613.333 464.906 610.853 464.026 607.919 464.026C605.146 464.026 602.799 464.879 600.879 466.586C599.013 468.239 597.866 470.559 597.439 473.546H618.479ZM649.454 462.426C650.894 460.079 652.761 458.239 655.054 456.906C657.401 455.572 660.068 454.906 663.054 454.906V466.666H660.094C656.574 466.666 653.908 467.492 652.094 469.146C650.334 470.799 649.454 473.679 649.454 477.786V499.866H638.254V455.546H649.454V462.426ZM712.998 455.546L685.558 520.826H673.638L683.238 498.746L665.478 455.546H678.038L689.478 486.506L701.078 455.546H712.998Z" fill="white"/>
<path d="M443.803 260.556L423.159 278.897C420.888 280.899 421.006 283.304 422.451 285.944L423.041 287.068L422.126 287.826L415.166 293.656L421.566 299.302L428.113 293.107L428.969 292.323L430.207 292.819C433.363 294.205 436.283 294.309 438.377 292.453L459.08 274.089L456.072 271.428L442.594 283.356L439.763 280.794L453.182 268.892L449.967 266.009L436.548 277.955L433.687 275.42L447.106 263.476L443.803 260.556ZM373.544 261.278C371.854 263.662 371.594 266.723 372.565 270.317C373.706 274.583 376.599 279.524 380.649 284.193C388.715 293.551 395.406 296.766 406.26 298.518L406.967 298.622C410.978 302.831 414.989 307.014 419 311.222H429.942L373.544 261.278ZM405.404 301.89L394.274 311.222H408.914L411.775 308.53L405.404 301.89ZM372.742 314.882V331.481L377.611 318.542H447.519L452.385 331.481V314.882H372.742ZM381.439 323.247L378.49 331.089H391.773L394.728 323.247H381.439ZM400.302 323.247L397.353 331.089H409.917V323.247H400.302ZM415.225 323.247V331.089H427.789L424.84 323.247H415.225ZM430.384 323.247L433.333 331.089H446.634L443.685 323.247H430.384ZM457.694 323.718V372.915H480.993C482.231 368.157 487.068 364.55 492.79 364.55C498.511 364.55 503.348 368.157 504.587 372.915H509.01V356.185L492.436 352.525H461.823V331.089H480.02L477.985 327.168L457.694 323.718ZM372.742 335.795V365.648L385.179 372.915H389.558C390.779 368.157 395.613 364.55 401.364 364.55C407.085 364.55 411.922 368.157 413.161 372.915H452.385V335.795H448.256V356.707H376.871V335.795H372.742ZM467.131 335.795V347.82H488.484L481.701 335.795H467.131ZM384.244 340.761L388.962 344.944H393.681L398.415 340.761H384.244ZM381.884 347.82V352.525H443.243V347.82H381.884ZM401.364 369.255C397.559 369.255 394.551 371.921 394.551 375.267C394.551 378.613 397.559 381.28 401.364 381.28C405.139 381.28 408.147 378.613 408.147 375.267C408.147 371.921 405.139 369.255 401.364 369.255ZM492.79 369.255C489.015 369.255 486.006 371.921 486.006 375.267C486.006 378.613 489.015 381.28 492.79 381.28C496.565 381.28 499.573 378.613 499.573 375.267C499.573 371.921 496.565 369.255 492.79 369.255Z" fill="white"/>
</svg>
