<svg viewBox="0 0 400 300" xmlns="http://www.w3.org/2000/svg"><path d="m136.28 142.22-18.26-6.25 63.48-34.7 18.25 6.66z" fill="#68e1fd"/><path d="m136.28 143.22a1 1 0 0 1 -.33-.06l-18.25-6.24a1 1 0 0 1 -.16-1.83l63.46-34.7a1 1 0 0 1 .82-.06l18.28 6.67a1 1 0 0 1 .65.86 1 1 0 0 1 -.52 1l-63.48 34.24a1 1 0 0 1 -.47.12zm-15.78-7.46 15.69 5.37 61.13-33-15.74-5.73z" fill="#093f68"/><path d="m199.75 107.93 14.47-6.66 67.76 34.2-18.75 6.75z" fill="#68e1fd"/><path d="m263.23 143.22a1 1 0 0 1 -.48-.12l-63.47-34.29a1 1 0 0 1 -.53-.92 1 1 0 0 1 .58-.87l14.48-6.66a1 1 0 0 1 .87 0l67.75 34.2a1 1 0 0 1 .54 1 1 1 0 0 1 -.66.88l-18.74 6.74a1 1 0 0 1 -.34.04zm-61.23-35.22 61.32 33.13 16.14-5.81-65.26-32.94z" fill="#093f68"/><path d="m199.75 107.93-63.47 34.2v65.95l63.47 10.93 63.48-10.93v-65.95z" fill="#093f68"/><path d="m199.75 220h-.17l-63.47-10.93a1 1 0 0 1 -.83-1v-66a1 1 0 0 1 .52-.88l63.48-34.2a1 1 0 0 1 .95 0l63.47 34.2a1 1 0 0 1 .53.88v66a1 1 0 0 1 -.83 1l-63.48 10.93zm-62.47-12.77 62.47 10.77 62.48-10.76v-64.51l-62.48-33.67-62.47 33.67z" fill="#093f68"/><ellipse cx="199.75" cy="174.02" fill="#093f68" rx="10.84" ry="8.28"/><path d="m199.75 183.3c-6.52 0-11.83-4.16-11.83-9.28s5.31-9.27 11.83-9.27 11.84 4.16 11.84 9.27-5.31 9.28-11.84 9.28zm0-16.55c-5.42 0-9.83 3.26-9.83 7.27s4.41 7.28 9.83 7.28 9.84-3.26 9.84-7.28-4.41-7.27-9.84-7.27z" fill="#093f68"/><path d="m231.87 116.87a32.12 32.12 0 1 0 -54.87 22.68 31.52 31.52 0 0 1 8.22 15.21l.26 1.1h28.52l.31-1.33a33.35 33.35 0 0 1 8.62-15.44 32 32 0 0 0 8.94-22.22z" fill="#ffbc0e"/><path d="m214 156.86h-28.5a1 1 0 0 1 -1-.77l-.25-1.1a30.51 30.51 0 0 0 -8-14.73 33.11 33.11 0 0 1 21.33-56.43 32.87 32.87 0 0 1 24.79 8.91 33.27 33.27 0 0 1 10.44 24.14 32.94 32.94 0 0 1 -9.21 22.9 32.52 32.52 0 0 0 -8.37 15l-.31 1.34a1 1 0 0 1 -.92.74zm-27.72-2h26.93l.13-.56a34.47 34.47 0 0 1 8.87-15.91 31.11 31.11 0 1 0 -44.49.45 32.57 32.57 0 0 1 8.48 15.69z" fill="#093f68"/><rect fill="#fff" height="6.59" rx="2.96" width="32.64" x="183.44" y="155.86"/><path d="m213.11 163.45h-26.71a4 4 0 0 1 -4-4v-.67a4 4 0 0 1 4-4h26.71a4 4 0 0 1 4 4v.67a4 4 0 0 1 -4 4zm-26.71-6.59a2 2 0 0 0 -2 2v.67a2 2 0 0 0 2 2h26.71a2 2 0 0 0 2-2v-.67a2 2 0 0 0 -2-2z" fill="#093f68"/><rect fill="#fff" height="6.59" rx="2.96" width="32.64" x="183.44" y="162.45"/><path d="m213.11 170h-26.71a4 4 0 0 1 -4-4v-.66a4 4 0 0 1 4-4h26.71a4 4 0 0 1 4 4v.66a4 4 0 0 1 -4 4zm-26.71-6.59a2 2 0 0 0 -2 2v.66a2 2 0 0 0 2 2h26.71a2 2 0 0 0 2-2v-.66a2 2 0 0 0 -2-2z" fill="#093f68"/><rect fill="#fff" height="6.59" rx="2.96" width="32.64" x="183.44" y="169.04"/><path d="m213.11 176.64h-26.71a4 4 0 0 1 -4-4v-.64a4 4 0 0 1 4-4h26.71a4 4 0 0 1 4 4v.66a4 4 0 0 1 -4 3.98zm-26.71-6.64a2 2 0 0 0 -2 2v.66a2 2 0 0 0 2 2h26.71a2 2 0 0 0 2-2v-.66a2 2 0 0 0 -2-2z" fill="#093f68"/><path d="m194.31 153.82a1 1 0 0 1 -1-.87l-5.4-40a1 1 0 0 1 .57-1 1 1 0 0 1 1.16.23l10.62 11.57 10.74-14.38a1 1 0 0 1 1.79.71l-4.94 42.85a1 1 0 0 1 -2-.22l4.52-39.18-9.22 12.3a1 1 0 0 1 -.75.4 1 1 0 0 1 -.78-.32l-9.29-10.11 5 36.89a1 1 0 0 1 -.86 1.12z" fill="#fff"/><path d="m199.75 176.42 63.48-34.2v65.95l-63.48 34.21z" fill="#68e1fd"/><path d="m199.75 243.38a1 1 0 0 1 -.51-.15 1 1 0 0 1 -.49-.85v-66a1 1 0 0 1 .53-.88l63.47-34.2a1 1 0 0 1 1 0 1 1 0 0 1 .49.86v65.95a1 1 0 0 1 -.53.88l-63.47 34.2a1 1 0 0 1 -.49.19zm1-66.36v63.68l61.48-33.13v-63.68z" fill="#093f68"/><path d="m199.75 176.42-63.47-34.2v65.95l63.47 34.21z" fill="#68e1fd"/><path d="m199.75 243.38a1 1 0 0 1 -.47-.13l-63.48-34.2a1 1 0 0 1 -.52-.88v-65.95a1 1 0 0 1 1.47-.88l63.48 34.2a1 1 0 0 1 .52.88v66a1 1 0 0 1 -1 1zm-62.47-35.81 61.47 33.13v-63.7l-61.47-33.13z" fill="#093f68"/><path d="m199.75 176.42 15.96 21.54 63.64-33.05-16.12-22.69z" fill="#68e1fd"/><path d="m215.71 199a1 1 0 0 1 -.81-.4l-15.9-21.6a1 1 0 0 1 -.17-.82 1 1 0 0 1 .5-.66l63.47-34.2a1 1 0 0 1 1.29.3l16.12 22.69a1 1 0 0 1 .16.82 1 1 0 0 1 -.51.65l-63.64 33a1 1 0 0 1 -.51.22zm-14.47-22.21 14.76 19.89 61.86-32.13-14.93-21z" fill="#093f68"/><path d="m199.75 176.42-16.28 21.54-62.98-33.38 15.79-22.36z" fill="#68e1fd"/><path d="m183.47 199a1 1 0 0 1 -.47-.11l-63-33.38a1 1 0 0 1 -.35-1.47l15.79-22.36a1 1 0 0 1 1.29-.3l63.48 34.2a1 1 0 0 1 .5.67 1 1 0 0 1 -.18.81l-16.28 21.55a1 1 0 0 1 -.78.39zm-61.47-34.77 61.23 32.45 15.06-19.93-61.67-33.23z" fill="#093f68"/><path d="m193.11 229.87-21.05-10.86v-9.3l21.05 10.85z" fill="#f56132"/><path d="m193.11 230.87a1 1 0 0 1 -.46-.11l-21.05-10.86a1 1 0 0 1 -.54-.89v-9.3a1 1 0 0 1 1.46-.89l21 10.86a1 1 0 0 1 .54.89v9.3a1 1 0 0 1 -1 1zm-20.05-12.47 19.05 9.83v-7.06l-19.05-9.82z" fill="#093f68"/><g fill="#dfeaef"><path d="m200 74.92a1 1 0 0 1 -1-1v-16.3a1 1 0 0 1 2 0v16.3a1 1 0 0 1 -1 1z"/><path d="m182.1 76.12a1 1 0 0 1 -.94-.66l-4.92-13.32a1 1 0 0 1 1.88-.69l4.88 13.32a1 1 0 0 1 -.59 1.28.91.91 0 0 1 -.31.07z"/><path d="m168.52 85.76a1 1 0 0 1 -.63-.22l-12.34-9.89a1 1 0 0 1 -.15-1.41 1 1 0 0 1 1.41-.16l12.34 9.92a1 1 0 0 1 .15 1.41 1 1 0 0 1 -.78.35z"/><path d="m159.88 101.65a.69.69 0 0 1 -.2 0l-19-3.93a1 1 0 1 1 .4-2l19 3.93a1 1 0 0 1 -.2 2z"/><path d="m217.9 76.12a.91.91 0 0 1 -.35-.07 1 1 0 0 1 -.59-1.28l4.92-13.32a1 1 0 0 1 1.88.69l-4.92 13.32a1 1 0 0 1 -.94.66z"/><path d="m231.48 85.76a1 1 0 0 1 -.78-.37 1 1 0 0 1 .15-1.41l12.34-9.9a1 1 0 0 1 1.26 1.57l-12.34 9.89a1 1 0 0 1 -.63.22z"/><path d="m240.12 101.65a1 1 0 0 1 -.2-2l19-3.93a1 1 0 1 1 .4 2l-19 3.93a.69.69 0 0 1 -.2 0z"/></g></svg>