<svg width="24" height="24" viewBox="0 0 24 24" fill="none" xmlns="http://www.w3.org/2000/svg">
<path d="M10.2 13.2L9.15 12.15C9.28333 11.9667 9.375 11.779 9.425 11.587C9.475 11.395 9.5 11.1993 9.5 11C9.5 10.8 9.475 10.604 9.425 10.412C9.375 10.22 9.28333 10.041 9.15 9.87499L10.2 8.79999C10.4667 9.11665 10.6667 9.46665 10.8 9.84999C10.9333 10.2333 11 10.6167 11 11C11 11.3833 10.9333 11.7627 10.8 12.138C10.6667 12.5133 10.4667 12.8673 10.2 13.2ZM12.325 15.35L11.25 14.275C11.6667 13.8083 11.9793 13.2917 12.188 12.725C12.3967 12.1583 12.5007 11.5833 12.5 11C12.5 10.4167 12.396 9.84599 12.188 9.28799C11.98 8.72999 11.6673 8.21732 11.25 7.74999L12.325 6.67499C12.8917 7.29165 13.3127 7.97099 13.588 8.71299C13.8633 9.45499 14.0007 10.2173 14 11C14 11.7833 13.8623 12.55 13.587 13.3C13.3117 14.05 12.891 14.7333 12.325 15.35ZM5 12C4.45 12 3.979 11.804 3.587 11.412C3.195 11.02 2.99933 10.5493 3 9.99999C3 9.44999 3.196 8.97899 3.588 8.58699C3.98 8.19499 4.45067 7.99932 5 7.99999C5.55 7.99999 6.021 8.19599 6.413 8.58799C6.805 8.97999 7.00067 9.45065 7 9.99999C7 10.55 6.804 11.021 6.412 11.413C6.02 11.805 5.54933 12.0007 5 12ZM1 16V15.425C1 15.025 1.10833 14.6583 1.325 14.325C1.54167 13.9917 1.84167 13.7417 2.225 13.575C2.65833 13.3917 3.10433 13.25 3.563 13.15C4.02167 13.05 4.50067 13 5 13C5.5 13 5.97933 13.05 6.438 13.15C6.89667 13.25 7.34233 13.3917 7.775 13.575C8.15833 13.7417 8.45833 13.9917 8.675 14.325C8.89167 14.6583 9 15.025 9 15.425V16H1ZM19 12C18.45 12 17.979 11.804 17.587 11.412C17.195 11.02 16.9993 10.5493 17 9.99999C17 9.44999 17.196 8.97899 17.588 8.58699C17.98 8.19499 18.4507 7.99932 19 7.99999C19.55 7.99999 20.021 8.19599 20.413 8.58799C20.805 8.97999 21.0007 9.45065 21 9.99999C21 10.55 20.804 11.021 20.412 11.413C20.02 11.805 19.5493 12.0007 19 12ZM15 16V15.425C15 15.025 15.1083 14.6583 15.325 14.325C15.5417 13.9917 15.8417 13.7417 16.225 13.575C16.6583 13.3917 17.104 13.25 17.562 13.15C18.02 13.05 18.4993 13 19 13C19.5 13 19.979 13.05 20.437 13.15C20.895 13.25 21.341 13.3917 21.775 13.575C22.1583 13.7417 22.4583 13.9917 22.675 14.325C22.8917 14.6583 23 15.025 23 15.425V16H15Z" fill="#52B788"/>
</svg>
